<svg viewBox="0 0 362.28 53" xmlns="http://www.w3.org/2000/svg"><g fill="#fff"><path d="m108.17 35.81a8.75 8.75 0 0 1 -3.7 2.26 15.93 15.93 0 0 1 -5.33.86 9.5 9.5 0 0 1 -7.14-2.73 11 11 0 0 1 -2.85-7.59v-2a13.56 13.56 0 0 1 1.19-5.86 8.79 8.79 0 0 1 3.39-3.85 9.57 9.57 0 0 1 5.1-1.35 10.09 10.09 0 0 1 6.59 1.94 8.26 8.26 0 0 1 2.73 5.8h-5.27a4.3 4.3 0 0 0 -1.21-2.72 3.94 3.94 0 0 0 -2.67-.77 3.57 3.57 0 0 0 -3.18 1.75 9.3 9.3 0 0 0 -1.14 5v1.37a9.14 9.14 0 0 0 1.18 5.08 4.11 4.11 0 0 0 3.66 1.71 4.63 4.63 0 0 0 3.18-.95v-3.51h-3.81v-3.76h9.28z"/><path d="m117.18 38.62h-5.46v-22.7h5.46z"/><path d="m134.15 34.38h-7.5l-1.31 4.24h-5.84l8.32-22.7h5.18l8.38 22.7h-5.87zm-6.15-4.23h4.88l-2.45-7.87z"/><path d="m162 38.62h-5.44l-8-14.13v14.13h-5.56v-22.7h5.48l8 14.12v-14.12h5.52z"/><path d="m182.78 20.15h-6.78v18.47h-5.5v-18.47h-6.69v-4.23h19z"/><path d="m200.54 30.59h-3v8h-5.44v-22.67h8.9a10 10 0 0 1 6.32 1.79 6.09 6.09 0 0 1 2.27 5.06 7.38 7.38 0 0 1 -1 3.93 6.78 6.78 0 0 1 -3 2.52l4.74 9.16v.24h-5.86zm-3-4.21h3.46a3.1 3.1 0 0 0 2.35-.82 3.2 3.2 0 0 0 .79-2.29 3.19 3.19 0 0 0 -.8-2.3 3.07 3.07 0 0 0 -2.34-.84h-3.46z"/><path d="m232.15 27.74a13.37 13.37 0 0 1 -1.24 5.87 9.07 9.07 0 0 1 -3.49 3.94 9.78 9.78 0 0 1 -5.17 1.38 10 10 0 0 1 -5.15-1.33 9.14 9.14 0 0 1 -3.5-3.82 13 13 0 0 1 -1.31-5.68v-1.28a13.53 13.53 0 0 1 1.22-5.89 9.08 9.08 0 0 1 3.49-3.93 10.37 10.37 0 0 1 10.34 0 9.29 9.29 0 0 1 3.52 3.91 13.09 13.09 0 0 1 1.27 5.8zm-5.57-.95a9.58 9.58 0 0 0 -1.13-5.14 3.61 3.61 0 0 0 -3.23-1.75c-2.75 0-4.2 2.05-4.35 6.17v1.67a9.76 9.76 0 0 0 1.13 5.12 3.61 3.61 0 0 0 3.29 1.8 3.57 3.57 0 0 0 3.19-1.76 9.56 9.56 0 0 0 1.14-5.07z"/><path d="m235 38.62v-22.7h8.15q4.38 0 6.66 1.61a5.35 5.35 0 0 1 2.29 4.66 5.44 5.44 0 0 1 -.81 3 4.81 4.81 0 0 1 -2.42 1.81 4.79 4.79 0 0 1 2.73 1.74 5.1 5.1 0 0 1 1 3.12 6 6 0 0 1 -2.11 5q-2.12 1.68-6.26 1.71zm5.47-13.24h2.85a4.11 4.11 0 0 0 2.56-.65 2.34 2.34 0 0 0 .76-1.9 2.47 2.47 0 0 0 -.83-2.07 4.41 4.41 0 0 0 -2.66-.63h-2.68zm0 3.59v5.44h3.53a3.43 3.43 0 0 0 2.28-.68 2.37 2.37 0 0 0 .79-1.91 2.51 2.51 0 0 0 -2.8-2.82z"/><path d="m274.78 27.74a13.23 13.23 0 0 1 -1.24 5.87 9.07 9.07 0 0 1 -3.49 3.94 9.78 9.78 0 0 1 -5.17 1.38 10 10 0 0 1 -5.15-1.33 9.05 9.05 0 0 1 -3.49-3.82 12.88 12.88 0 0 1 -1.32-5.68v-1.28a13.53 13.53 0 0 1 1.22-5.89 9.08 9.08 0 0 1 3.51-3.93 10.37 10.37 0 0 1 10.35 0 9.29 9.29 0 0 1 3.52 3.91 13.09 13.09 0 0 1 1.27 5.8zm-5.57-.95a9.58 9.58 0 0 0 -1.13-5.14 3.61 3.61 0 0 0 -3.23-1.75c-2.75 0-4.2 2.05-4.35 6.17v1.67a9.76 9.76 0 0 0 1.11 5.12 3.61 3.61 0 0 0 3.29 1.8 3.57 3.57 0 0 0 3.19-1.76 9.56 9.56 0 0 0 1.14-5.07z"/><path d="m294.09 20.15h-6.81v18.47h-5.47v-18.47h-6.69v-4.23h19z"/><path d="m308.88 34.41h9.52v4.21h-15v-22.7h5.47z"/><path d="m335.33 20.15h-6.81v18.47h-5.47v-18.47h-6.69v-4.23h19z"/><path d="m337.64 38.62v-22.7h7.36a10.77 10.77 0 0 1 5.41 1.37 9.53 9.53 0 0 1 3.75 3.85 11.68 11.68 0 0 1 1.36 5.57v1a11.68 11.68 0 0 1 -1.32 5.59 9.6 9.6 0 0 1 -3.71 3.87 10.49 10.49 0 0 1 -5.34 1.41zm5.47-18.47v14.26h1.89a4.26 4.26 0 0 0 3.62-1.68 8.19 8.19 0 0 0 1.26-5v-1a8.19 8.19 0 0 0 -1.26-5 4.33 4.33 0 0 0 -3.62-1.58z"/><path d="m359.38 33.52a3 3 0 0 1 2.08.74 2.41 2.41 0 0 1 .82 1.89 2.45 2.45 0 0 1 -.82 1.9 3 3 0 0 1 -2.08.74 3 3 0 0 1 -2.08-.79 2.58 2.58 0 0 1 0-3.77 3 3 0 0 1 2.08-.71z"/><path d="m67.2 0h-56.4a10.81 10.81 0 0 0 -10.8 10.8v31.4a10.81 10.81 0 0 0 10.8 10.8h56.4a10.81 10.81 0 0 0 10.8-10.8v-31.4a10.81 10.81 0 0 0 -10.8-10.8zm-27.45 31h8v10h-8zm-2 10h-8v-10h8zm-28-21a7 7 0 1 1 7 7 7 7 0 0 1 -7-7zm10.75 16a5 5 0 0 1 5-5h2.25v10h-2.25a5 5 0 0 1 -5-5zm32 5h-2.75v-10h2.75a5 5 0 0 1 0 10zm8.25-14a7 7 0 1 1 7-7 7 7 0 0 1 -7 7z"/></g></svg>